<?xml version="1.0" standalone="no"?>
<!DOCTYPE svg PUBLIC "-//W3C//DTD SVG 20010904//EN"
 "http://www.w3.org/TR/2001/REC-SVG-20010904/DTD/svg10.dtd">
<svg version="1.0" xmlns="http://www.w3.org/2000/svg"
 width="512.000000pt" height="512.000000pt" viewBox="0 0 512.000000 512.000000"
 preserveAspectRatio="xMidYMid meet">

<g transform="translate(0.000000,512.000000) scale(0.100000,-0.100000)"
fill="#000000" stroke="none">
<path d="M1621 4440 c-287 -25 -475 -107 -655 -286 -174 -174 -260 -364 -285
-635 -15 -154 -15 -1764 0 -1918 25 -270 113 -468 284 -637 175 -173 366 -258
636 -283 151 -14 1755 -15 1904 -1 298 29 457 100 645 289 164 165 239 312
278 542 15 94 17 197 17 1039 0 980 -1 1014 -45 1186 -77 300 -363 587 -662
663 -169 43 -188 44 -1123 47 -495 1 -942 -2 -994 -6z m215 -296 c-3 -9 -6
-162 -6 -340 l0 -324 -431 0 -431 0 7 53 c22 178 75 288 200 412 157 157 297
207 604 214 54 1 62 -1 57 -15z m1164 -324 l0 -340 -437 2 -438 3 -3 338 -2
337 440 0 440 0 0 -340z m600 314 c135 -23 235 -77 345 -188 129 -129 176
-227 200 -413 l7 -53 -431 0 -431 0 0 341 0 342 113 -7 c61 -4 150 -14 197
-22z m560 -1666 c0 -898 -6 -975 -88 -1133 -53 -102 -192 -239 -292 -288 -166
-81 -243 -87 -1220 -87 -810 0 -953 5 -1094 40 -208 52 -412 254 -465 462 -34
131 -41 313 -41 1035 l0 693 1600 0 1600 0 0 -722z"/>
<path d="M2304 2920 c-103 -21 -200 -95 -246 -187 l-23 -48 0 -515 0 -515 27
-50 c32 -62 104 -130 166 -158 69 -30 182 -35 248 -10 70 27 721 461 763 508
121 138 113 346 -18 468 -56 52 -692 475 -741 492 -51 18 -129 25 -176 15z
m403 -503 c172 -114 317 -216 323 -227 7 -13 7 -26 1 -38 -13 -25 -643 -442
-667 -442 -44 0 -44 4 -44 460 0 467 0 465 50 457 14 -2 165 -97 337 -210z"/>
</g>
</svg>
